{"accessors" : [{"bufferView" : 0, "byteOffset" : 0, "componentType" : 5123, "count" : 27054, "type" : "SCALAR", "max" : [22301], "min" : [0]}, {"bufferView" : 1, "byteOffset" : 0, "componentType" : 5126, "count" : 22302, "type" : "VEC3", "max" : [1.2076936960220337, 1.3399351835250854, 0.9949936866760254], "min" : [-1.1985986232757568, -1.1413233280181885, -0.9949936866760254], "name" : "POSITION"}, {"bufferView" : 1, "byteOffset" : 12, "componentType" : 5126, "count" : 22302, "type" : "VEC3", "max" : [0.9999585747718811, 1.0000044107437134, 0.9999585747718811], "min" : [-0.9999585747718811, -1.0000044107437134, -0.9999585747718811], "name" : "NORMAL"}, {"bufferView" : 1, "byteOffset" : 24, "componentType" : 5126, "count" : 22302, "type" : "VEC2", "max" : [0.992246150970459, 0.9891777634620667], "min" : [0.009094154462218285, 0.02180248498916626], "name" : "TEXCOORD_0"}, {"bufferView" : 0, "byteOffset" : 54108, "componentType" : 5123, "count" : 3168, "type" : "SCALAR", "max" : [2447], "min" : [0]}, {"bufferView" : 2, "byteOffset" : 0, "componentType" : 5126, "count" : 2448, "type" : "VEC3", "max" : [0.648410975933075, 2.6507036685943604, 0.648410975933075], "min" : [-0.648410975933075, 0.7901843190193176, -0.648410975933075], "name" : "POSITION"}, {"bufferView" : 2, "byteOffset" : 12, "componentType" : 5126, "count" : 2448, "type" : "VEC3", "max" : [1.0000020265579224, 0.9359109401702881, 1.0000020265579224], "min" : [-1.000002145767212, -0.9999600052833557, -1.0000020265579224], "name" : "NORMAL"}, {"bufferView" : 2, "byteOffset" : 24, "componentType" : 5126, "count" : 2448, "type" : "VEC2", "max" : [0.9926233291625977, 0.8198997378349304], "min" : [0.8998337388038635, 0.6859244108200073], "name" : "TEXCOORD_0"}], "asset" : {"generator" : "Aspose.3D 23.4.0", "version" : "2.0"}, "buffers" : [{"uri" : "data:application/octet-stream;base64,", "byteLength" : 1027560}], "bufferViews" : [{"buffer" : 0, "byteOffset" : 0, "byteLength" : 60444, "target" : 34963}, {"buffer" : 0, "byteOffset" : 60448, "byteLength" : 865728, "byteStride" : 32, "target" : 34962}, {"buffer" : 0, "byteOffset" : 926180, "byteLength" : 101376, "byteStride" : 32, "target" : 34962}], "images" : [{"uri" : "data:image/jpeg;base64,"}, {"uri" : "data:image/jpeg;base64,"}], "materials" : [{"name" : "Material", "pbrMetallicRoughness" : {"baseColorFactor" : [1, 1, 1, 1], "baseColorTexture" : {"index" : 0, "texCoord" : 0}, "metallicFactor" : 0, "roughnessFactor" : 0.5}, "emissiveFactor" : [0, 0, 0], "alphaMode" : "OPAQUE", "doubleSided" : true}, {"name" : "Material.001", "pbrMetallicRoughness" : {"baseColorFactor" : [1, 1, 1, 0.30000001192092896], "baseColorTexture" : {"index" : 1, "texCoord" : 0}, "metallicFactor" : 0, "roughnessFactor" : 0}, "emissiveFactor" : [0.005968782585114241, 0.008074352517724037, 0.0063069346360862255], "alphaMode" : "BLEND", "doubleSided" : true}], "meshes" : [{"primitives" : [{"attributes" : {"POSITION" : 1, "NORMAL" : 2, "TEXCOORD_0" : 3}, "indices" : 0, "material" : 0, "mode" : 4}]}, {"primitives" : [{"attributes" : {"POSITION" : 5, "NORMAL" : 6, "TEXCOORD_0" : 7}, "indices" : 4, "material" : 1, "mode" : 4}]}], "nodes" : [{"matrix" : [0.3342463315156404, 0, -0.12073869029083789, 0, 0, 0.3553849458694458, 0, 0, 0.12073869029083789, 0, 0.3342463315156404, 0, 0, 0, 0, 1], "mesh" : 0, "name" : "Cylinder.001"}, {"matrix" : [0.3553849458694458, 0, 0, 0, 0, 0.3553849458694458, 0, 0, 0, 0, 0.3553849458694458, 0, 0, 0, 0, 1], "mesh" : 1, "name" : "Cylinder.005"}], "samplers" : [{"magFilter" : 9729, "minFilter" : 9987, "wrapS" : 10497, "wrapT" : 10497}, {"magFilter" : 9729, "minFilter" : 9987, "wrapS" : 10497, "wrapT" : 10497}], "scene" : 0, "scenes" : [{"nodes" : [0, 1]}], "textures" : [{"sampler" : 0, "source" : 0, "name" : ""}, {"sampler" : 1, "source" : 1, "name" : ""}]}