{"accessors" : [{"bufferView" : 0, "byteOffset" : 0, "componentType" : 5123, "count" : 7260, "type" : "SCALAR", "max" : [6313], "min" : [0]}, {"bufferView" : 1, "byteOffset" : 0, "componentType" : 5126, "count" : 6314, "type" : "VEC3", "max" : [27.515615463256836, 47.35774612426758, 19.954788208007812], "min" : [-27.515615463256836, -2.999340534210205, -26.138179779052734], "name" : "POSITION"}, {"bufferView" : 1, "byteOffset" : 12, "componentType" : 5126, "count" : 6314, "type" : "VEC3", "max" : [1.0000044107437134, 1.0000044107437134, 1.0000044107437134], "min" : [-1.0000044107437134, -1.0000044107437134, -1.0000044107437134], "name" : "NORMAL"}, {"bufferView" : 1, "byteOffset" : 24, "componentType" : 5126, "count" : 6314, "type" : "VEC2", "max" : [0.987041175365448, 0.9402978420257568], "min" : [0.018754374235868454, -0.9168078899383545], "name" : "TEXCOORD_0"}, {"bufferView" : 0, "byteOffset" : 14520, "componentType" : 5123, "count" : 1104, "type" : "SCALAR", "max" : [832], "min" : [0]}, {"bufferView" : 2, "byteOffset" : 0, "componentType" : 5126, "count" : 833, "type" : "VEC3", "max" : [116.98040008544922, 5.4848127365112305, 4.868868827819824], "min" : [-116.53318786621094, 0.10428966581821442, -4.868868827819824], "name" : "POSITION"}, {"bufferView" : 2, "byteOffset" : 12, "componentType" : 5126, "count" : 833, "type" : "VEC3", "max" : [1.0000044107437134, 1.0000044107437134, 1.0000042915344238], "min" : [-1.0000042915344238, -1.0000041723251343, -1.0000042915344238], "name" : "NORMAL"}, {"bufferView" : 2, "byteOffset" : 24, "componentType" : 5126, "count" : 833, "type" : "VEC2", "max" : [0.64202880859375, 0.95292729139328], "min" : [0.16187411546707153, 0.027512669563293457], "name" : "TEXCOORD_0"}, {"bufferView" : 0, "byteOffset" : 16728, "componentType" : 5123, "count" : 7260, "type" : "SCALAR", "max" : [6313], "min" : [0]}, {"bufferView" : 3, "byteOffset" : 0, "componentType" : 5126, "count" : 6314, "type" : "VEC3", "max" : [27.515615463256836, 47.35774612426758, 19.954788208007812], "min" : [-27.515615463256836, -2.999340534210205, -26.138179779052734], "name" : "POSITION"}, {"bufferView" : 3, "byteOffset" : 12, "componentType" : 5126, "count" : 6314, "type" : "VEC3", "max" : [1.0000044107437134, 1.0000044107437134, 1.0000044107437134], "min" : [-1.0000044107437134, -1.0000044107437134, -1.0000044107437134], "name" : "NORMAL"}, {"bufferView" : 3, "byteOffset" : 24, "componentType" : 5126, "count" : 6314, "type" : "VEC2", "max" : [0.987041175365448, 0.9402978420257568], "min" : [0.018754374235868454, -0.9168078899383545], "name" : "TEXCOORD_0"}], "asset" : {"generator" : "Aspose.3D 23.4.0", "version" : "2.0"}, "buffers" : [{"uri" : "data:application/octet-stream;base64,", "byteLength" : 531232}], "bufferViews" : [{"buffer" : 0, "byteOffset" : 0, "byteLength" : 31248, "target" : 34963}, {"buffer" : 0, "byteOffset" : 31252, "byteLength" : 232320, "byteStride" : 32, "target" : 34962}, {"buffer" : 0, "byteOffset" : 263576, "byteLength" : 35328, "byteStride" : 32, "target" : 34962}, {"buffer" : 0, "byteOffset" : 298908, "byteLength" : 232320, "byteStride" : 32, "target" : 34962}], "images" : [{"uri" : "data:image/jpeg;base64,"}, {"uri" : "data:image/jpeg;base64,"}], "materials" : [{"name" : "Material #28", "pbrMetallicRoughness" : {"baseColorFactor" : [1, 1, 1, 1], "baseColorTexture" : {"index" : 0, "texCoord" : 0}, "metallicFactor" : 1, "roughnessFactor" : 0.858578622341156}, "emissiveFactor" : [0, 0, 0], "alphaMode" : "OPAQUE", "doubleSided" : true}, {"name" : "Material #31", "pbrMetallicRoughness" : {"baseColorFactor" : [1, 1, 1, 1], "baseColorTexture" : {"index" : 1, "texCoord" : 0}, "metallicFactor" : 1, "roughnessFactor" : 0.858578622341156}, "emissiveFactor" : [0, 0, 0], "alphaMode" : "OPAQUE", "doubleSided" : true}, {"name" : "Material #28", "pbrMetallicRoughness" : {"baseColorFactor" : [1, 1, 1, 1], "baseColorTexture" : {"index" : 0, "texCoord" : 0}, "metallicFactor" : 1, "roughnessFactor" : 0.858578622341156}, "emissiveFactor" : [0, 0, 0], "alphaMode" : "OPAQUE", "doubleSided" : true}], "meshes" : [{"primitives" : [{"attributes" : {"POSITION" : 1, "NORMAL" : 2, "TEXCOORD_0" : 3}, "indices" : 0, "material" : 0, "mode" : 4}]}, {"primitives" : [{"attributes" : {"POSITION" : 5, "NORMAL" : 6, "TEXCOORD_0" : 7}, "indices" : 4, "material" : 1, "mode" : 4}]}, {"primitives" : [{"attributes" : {"POSITION" : 9, "NORMAL" : 10, "TEXCOORD_0" : 11}, "indices" : 8, "material" : 2, "mode" : 4}]}], "nodes" : [{"matrix" : [0.02539999969303608, 0, 0, 0, 0, -3.412714913476965E-09, 0.025399998823630948, 0, 0, -0.025399998823630948, -3.412714913476965E-09, 0, 0.24137887358665466, 1.0884968042373657, 0, 1], "mesh" : 0, "name" : "Box001"}, {"matrix" : [0.02539999969303608, 0, 0, 0, 0, 0.02539999969303608, 0, 0, 0, 0, 0.02539999969303608, 0, 1.9380772113800049, 1.5874632596969604, 0.5348188281059265, 1], "mesh" : 1, "name" : "Box003"}, {"matrix" : [0.02539999969303608, 0, 0, 0, 0, -3.412714913476965E-09, 0.025399998823630948, 0, 0, -0.025399998823630948, -3.412714913476965E-09, 0, 3.6096346378326416, 1.0884968042373657, 0, 1], "mesh" : 2, "name" : "Box004"}], "samplers" : [{"magFilter" : 9729, "minFilter" : 9987, "wrapS" : 10497, "wrapT" : 10497}, {"magFilter" : 9729, "minFilter" : 9987, "wrapS" : 10497, "wrapT" : 10497}], "scene" : 0, "scenes" : [{"nodes" : [0, 1, 2]}], "textures" : [{"sampler" : 0, "source" : 0, "name" : ""}, {"sampler" : 1, "source" : 1, "name" : ""}]}