{"accessors" : [{"bufferView" : 0, "byteOffset" : 0, "componentType" : 5123, "count" : 38400, "type" : "SCALAR", "max" : [29191], "min" : [0]}, {"bufferView" : 1, "byteOffset" : 0, "componentType" : 5126, "count" : 29192, "type" : "VEC3", "max" : [10.7426118850708, 3.3873114585876465, 1.1442768573760986], "min" : [-28.601078033447266, -4.332005500793457, -29.884471893310547], "name" : "POSITION"}, {"bufferView" : 1, "byteOffset" : 12, "componentType" : 5126, "count" : 29192, "type" : "VEC3", "max" : [0.9999654293060303, 1.0000044107437134, 1.0000041723251343], "min" : [-0.9997901320457458, -1.0000044107437134, -1.0000026226043701], "name" : "NORMAL"}, {"bufferView" : 1, "byteOffset" : 24, "componentType" : 5126, "count" : 29192, "type" : "VEC2", "max" : [0.9881725311279297, 0.9782462120056152], "min" : [0.015076868236064911, 0.027509868144989014], "name" : "TEXCOORD_0"}, {"bufferView" : 1, "byteOffset" : 32, "componentType" : 5126, "count" : 29192, "type" : "VEC2", "max" : [0.9881725311279297, 0.9608287811279297], "min" : [0.14929233491420746, 0.028493940830230713], "name" : "TEXCOORD_1"}], "asset" : {"generator" : "Aspose.3D 23.4.0", "version" : "2.0"}, "buffers" : [{"uri" : "data:application/octet-stream;base64,", "byteLength" : 1612808}], "bufferViews" : [{"buffer" : 0, "byteOffset" : 0, "byteLength" : 76800, "target" : 34963}, {"buffer" : 0, "byteOffset" : 76804, "byteLength" : 1536000, "byteStride" : 40, "target" : 34962}], "images" : [{"uri" : "data:image/png;base64,"}], "materials" : [{"name" : "Material.001", "pbrMetallicRoughness" : {"baseColorFactor" : [1, 1, 1, 1], "baseColorTexture" : {"index" : 0, "texCoord" : 0}, "metallicFactor" : 0, "roughnessFactor" : 0.690034806728363}, "emissiveFactor" : [0, 0, 0], "alphaMode" : "OPAQUE", "doubleSided" : true}], "meshes" : [{"primitives" : [{"attributes" : {"POSITION" : 1, "NORMAL" : 2, "TEXCOORD_0" : 3, "TEXCOORD_1" : 4}, "indices" : 0, "material" : 0, "mode" : 4}]}], "nodes" : [{"matrix" : [0.18934905605046545, 0.04084114656691471, 7.878970108566897E-09, 0, 2.865195183374413E-08, -1.0846593840216268E-07, -0.19370356011768228, 0, -0.04084114656690542, 0.18934906904805515, -1.1236087249713883E-07, 0, 5.409180164337158, 2.1777846813201904, 0.2623537480831146, 1], "mesh" : 0, "name" : "Plane.001"}], "samplers" : [{"magFilter" : 9729, "minFilter" : 9987, "wrapS" : 10497, "wrapT" : 10497}], "scene" : 0, "scenes" : [{"nodes" : [0]}], "textures" : [{"sampler" : 0, "source" : 0, "name" : ""}]}