{"accessors" : [{"bufferView" : 0, "byteOffset" : 0, "componentType" : 5123, "count" : 16296, "type" : "SCALAR", "max" : [13524], "min" : [0]}, {"bufferView" : 1, "byteOffset" : 0, "componentType" : 5126, "count" : 13525, "type" : "VEC3", "max" : [89.93315887451172, 123.28755950927734, 107.47635650634766], "min" : [-114.26302337646484, -141.80357360839844, -147.26148986816406], "name" : "POSITION"}, {"bufferView" : 1, "byteOffset" : 12, "componentType" : 5126, "count" : 13525, "type" : "VEC3", "max" : [0.9993850588798523, 0.9992351531982422, 0.9996281862258911], "min" : [-0.9994820356369019, -0.9997000694274902, -0.9996715188026428], "name" : "NORMAL"}, {"bufferView" : 1, "byteOffset" : 24, "componentType" : 5126, "count" : 13525, "type" : "VEC2", "max" : [0.9961631298065186, 0.9985719323158264], "min" : [0.002882670611143112, 0.001813054084777832], "name" : "TEXCOORD_0"}], "asset" : {"generator" : "Aspose.3D 23.6.0", "version" : "2.0"}, "buffers" : [{"uri" : "data:application/octet-stream;base64,", "byteLength" : 554072}], "bufferViews" : [{"buffer" : 0, "byteOffset" : 0, "byteLength" : 32592, "target" : 34963}, {"buffer" : 0, "byteOffset" : 32596, "byteLength" : 521472, "byteStride" : 32, "target" : 34962}], "images" : [{"uri" : "data:image/jpeg;base64,"}], "materials" : [{"name" : "_texture.025", "pbrMetallicRoughness" : {"baseColorFactor" : [1, 1, 1, 1], "baseColorTexture" : {"index" : 0, "texCoord" : 0}, "metallicFactor" : 0, "roughnessFactor" : 1}, "emissiveFactor" : [0, 0, 0], "alphaMode" : "OPAQUE", "doubleSided" : true}], "meshes" : [{"primitives" : [{"attributes" : {"POSITION" : 1, "NORMAL" : 2, "TEXCOORD_0" : 3}, "indices" : 0, "material" : 0, "mode" : 4}]}], "nodes" : [{"matrix" : [0.012369417646030336, -0.0009233340487273643, -0.014333122191258577, 0, 0.0138805110141977, 0.005629328633372744, 0.011616177385347403, 0, 0.003690852844540554, -0.01807627398961136, 0.004349655046191859, 0, 0, 0, 0, 1], "mesh" : 0, "name" : "dau_rong_01.001"}], "samplers" : [{"magFilter" : 9729, "minFilter" : 9987, "wrapS" : 10497, "wrapT" : 10497}], "scene" : 0, "scenes" : [{"nodes" : [0]}], "textures" : [{"sampler" : 0, "source" : 0, "name" : ""}]}